<mxfile host="app.diagrams.net" agent="Mozilla/5.0 (Windows NT 10.0; Win64; x64) AppleWebKit/537.36 (KHTML, like Gecko) Chrome/126.0.0.0 Safari/537.36" version="24.7.12" pages="4">
  <diagram name="11_calcChange" id="iT6GAmAel3aYIEC_cNCm">
    <mxGraphModel dx="1634" dy="842" grid="1" gridSize="10" guides="1" tooltips="1" connect="1" arrows="1" fold="1" page="1" pageScale="1" pageWidth="1169" pageHeight="827" math="0" shadow="0">
      <root>
        <mxCell id="0" />
        <mxCell id="1" parent="0" />
        <mxCell id="9xLJ-oofB6RGyYax8c_z-29" value="" style="edgeStyle=orthogonalEdgeStyle;rounded=0;orthogonalLoop=1;jettySize=auto;html=1;" edge="1" parent="1" source="9xLJ-oofB6RGyYax8c_z-1" target="9xLJ-oofB6RGyYax8c_z-28">
          <mxGeometry relative="1" as="geometry" />
        </mxCell>
        <mxCell id="9xLJ-oofB6RGyYax8c_z-1" value="開始" style="strokeWidth=2;html=1;shape=mxgraph.flowchart.terminator;whiteSpace=wrap;" vertex="1" parent="1">
          <mxGeometry x="110" y="80" width="100" height="40" as="geometry" />
        </mxCell>
        <mxCell id="9xLJ-oofB6RGyYax8c_z-2" value="終了" style="strokeWidth=2;html=1;shape=mxgraph.flowchart.terminator;whiteSpace=wrap;" vertex="1" parent="1">
          <mxGeometry x="110" y="480" width="100" height="40" as="geometry" />
        </mxCell>
        <mxCell id="9xLJ-oofB6RGyYax8c_z-7" value="" style="edgeStyle=orthogonalEdgeStyle;rounded=0;orthogonalLoop=1;jettySize=auto;html=1;" edge="1" parent="1" source="9xLJ-oofB6RGyYax8c_z-3" target="9xLJ-oofB6RGyYax8c_z-4">
          <mxGeometry relative="1" as="geometry" />
        </mxCell>
        <mxCell id="9xLJ-oofB6RGyYax8c_z-3" value="入力処理" style="verticalLabelPosition=bottom;verticalAlign=top;html=1;shape=process;whiteSpace=wrap;rounded=1;size=0.14;arcSize=6;spacingTop=-32;" vertex="1" parent="1">
          <mxGeometry x="110" y="240" width="100" height="40" as="geometry" />
        </mxCell>
        <mxCell id="9xLJ-oofB6RGyYax8c_z-8" value="" style="edgeStyle=orthogonalEdgeStyle;rounded=0;orthogonalLoop=1;jettySize=auto;html=1;" edge="1" parent="1" source="9xLJ-oofB6RGyYax8c_z-4">
          <mxGeometry relative="1" as="geometry">
            <mxPoint x="160" y="400" as="targetPoint" />
          </mxGeometry>
        </mxCell>
        <mxCell id="9xLJ-oofB6RGyYax8c_z-4" value="釣銭計算" style="verticalLabelPosition=bottom;verticalAlign=top;html=1;shape=process;whiteSpace=wrap;rounded=1;size=0.14;arcSize=6;spacingTop=-32;" vertex="1" parent="1">
          <mxGeometry x="110" y="320" width="100" height="40" as="geometry" />
        </mxCell>
        <mxCell id="9xLJ-oofB6RGyYax8c_z-14" value="" style="edgeStyle=orthogonalEdgeStyle;rounded=0;orthogonalLoop=1;jettySize=auto;html=1;" edge="1" parent="1" source="9xLJ-oofB6RGyYax8c_z-10" target="9xLJ-oofB6RGyYax8c_z-11">
          <mxGeometry relative="1" as="geometry" />
        </mxCell>
        <mxCell id="9xLJ-oofB6RGyYax8c_z-10" value="入力処理" style="strokeWidth=2;html=1;shape=mxgraph.flowchart.terminator;whiteSpace=wrap;" vertex="1" parent="1">
          <mxGeometry x="310" y="80" width="100" height="40" as="geometry" />
        </mxCell>
        <mxCell id="9xLJ-oofB6RGyYax8c_z-15" value="" style="edgeStyle=orthogonalEdgeStyle;rounded=0;orthogonalLoop=1;jettySize=auto;html=1;" edge="1" parent="1" source="9xLJ-oofB6RGyYax8c_z-11" target="9xLJ-oofB6RGyYax8c_z-12">
          <mxGeometry relative="1" as="geometry" />
        </mxCell>
        <mxCell id="9xLJ-oofB6RGyYax8c_z-11" value="金額：" style="strokeWidth=2;html=1;shape=mxgraph.flowchart.display;whiteSpace=wrap;" vertex="1" parent="1">
          <mxGeometry x="310" y="160" width="100" height="40" as="geometry" />
        </mxCell>
        <mxCell id="9xLJ-oofB6RGyYax8c_z-18" value="" style="edgeStyle=orthogonalEdgeStyle;rounded=0;orthogonalLoop=1;jettySize=auto;html=1;" edge="1" parent="1" source="9xLJ-oofB6RGyYax8c_z-12" target="9xLJ-oofB6RGyYax8c_z-17">
          <mxGeometry relative="1" as="geometry" />
        </mxCell>
        <mxCell id="9xLJ-oofB6RGyYax8c_z-12" value="金額" style="html=1;strokeWidth=2;shape=manualInput;whiteSpace=wrap;rounded=1;size=13;arcSize=0;spacingTop=6;" vertex="1" parent="1">
          <mxGeometry x="310" y="240" width="100" height="40" as="geometry" />
        </mxCell>
        <mxCell id="9xLJ-oofB6RGyYax8c_z-20" value="" style="edgeStyle=orthogonalEdgeStyle;rounded=0;orthogonalLoop=1;jettySize=auto;html=1;" edge="1" parent="1" source="9xLJ-oofB6RGyYax8c_z-17" target="9xLJ-oofB6RGyYax8c_z-19">
          <mxGeometry relative="1" as="geometry" />
        </mxCell>
        <mxCell id="9xLJ-oofB6RGyYax8c_z-17" value="預り金：" style="strokeWidth=2;html=1;shape=mxgraph.flowchart.display;whiteSpace=wrap;" vertex="1" parent="1">
          <mxGeometry x="310" y="320" width="100" height="40" as="geometry" />
        </mxCell>
        <mxCell id="9xLJ-oofB6RGyYax8c_z-22" value="" style="edgeStyle=orthogonalEdgeStyle;rounded=0;orthogonalLoop=1;jettySize=auto;html=1;" edge="1" parent="1" source="9xLJ-oofB6RGyYax8c_z-19" target="9xLJ-oofB6RGyYax8c_z-21">
          <mxGeometry relative="1" as="geometry" />
        </mxCell>
        <mxCell id="9xLJ-oofB6RGyYax8c_z-19" value="預り金" style="html=1;strokeWidth=2;shape=manualInput;whiteSpace=wrap;rounded=1;size=13;arcSize=0;spacingTop=6;" vertex="1" parent="1">
          <mxGeometry x="310" y="400" width="100" height="40" as="geometry" />
        </mxCell>
        <mxCell id="9xLJ-oofB6RGyYax8c_z-21" value="戻る" style="strokeWidth=2;html=1;shape=mxgraph.flowchart.terminator;whiteSpace=wrap;" vertex="1" parent="1">
          <mxGeometry x="310" y="480" width="100" height="40" as="geometry" />
        </mxCell>
        <mxCell id="9xLJ-oofB6RGyYax8c_z-26" value="" style="edgeStyle=orthogonalEdgeStyle;rounded=0;orthogonalLoop=1;jettySize=auto;html=1;" edge="1" parent="1" source="9xLJ-oofB6RGyYax8c_z-23" target="9xLJ-oofB6RGyYax8c_z-24">
          <mxGeometry relative="1" as="geometry" />
        </mxCell>
        <mxCell id="9xLJ-oofB6RGyYax8c_z-23" value="釣銭計算" style="strokeWidth=2;html=1;shape=mxgraph.flowchart.terminator;whiteSpace=wrap;" vertex="1" parent="1">
          <mxGeometry x="510" y="80" width="100" height="40" as="geometry" />
        </mxCell>
        <mxCell id="9xLJ-oofB6RGyYax8c_z-27" value="" style="edgeStyle=orthogonalEdgeStyle;rounded=0;orthogonalLoop=1;jettySize=auto;html=1;" edge="1" parent="1" source="9xLJ-oofB6RGyYax8c_z-24" target="9xLJ-oofB6RGyYax8c_z-25">
          <mxGeometry relative="1" as="geometry" />
        </mxCell>
        <mxCell id="9xLJ-oofB6RGyYax8c_z-24" value="釣銭 ＝ 預り金 ー 金額" style="rounded=1;whiteSpace=wrap;html=1;absoluteArcSize=1;arcSize=14;strokeWidth=2;" vertex="1" parent="1">
          <mxGeometry x="490" y="160" width="140" height="40" as="geometry" />
        </mxCell>
        <mxCell id="9xLJ-oofB6RGyYax8c_z-25" value="戻る" style="strokeWidth=2;html=1;shape=mxgraph.flowchart.terminator;whiteSpace=wrap;" vertex="1" parent="1">
          <mxGeometry x="510" y="240" width="100" height="40" as="geometry" />
        </mxCell>
        <mxCell id="9xLJ-oofB6RGyYax8c_z-30" value="" style="edgeStyle=orthogonalEdgeStyle;rounded=0;orthogonalLoop=1;jettySize=auto;html=1;" edge="1" parent="1" source="9xLJ-oofB6RGyYax8c_z-28" target="9xLJ-oofB6RGyYax8c_z-3">
          <mxGeometry relative="1" as="geometry" />
        </mxCell>
        <mxCell id="9xLJ-oofB6RGyYax8c_z-28" value="金額, 預り金, 釣銭" style="verticalLabelPosition=bottom;verticalAlign=top;html=1;shape=hexagon;perimeter=hexagonPerimeter2;arcSize=6;size=0.12500000000000142;spacingTop=-32;" vertex="1" parent="1">
          <mxGeometry x="80" y="160" width="160" height="40" as="geometry" />
        </mxCell>
        <mxCell id="9xLJ-oofB6RGyYax8c_z-32" value="" style="edgeStyle=orthogonalEdgeStyle;rounded=0;orthogonalLoop=1;jettySize=auto;html=1;" edge="1" parent="1" source="9xLJ-oofB6RGyYax8c_z-31" target="9xLJ-oofB6RGyYax8c_z-2">
          <mxGeometry relative="1" as="geometry" />
        </mxCell>
        <mxCell id="9xLJ-oofB6RGyYax8c_z-31" value="預り金" style="html=1;strokeWidth=2;shape=manualInput;whiteSpace=wrap;rounded=1;size=13;arcSize=0;spacingTop=6;" vertex="1" parent="1">
          <mxGeometry x="110" y="400" width="100" height="40" as="geometry" />
        </mxCell>
      </root>
    </mxGraphModel>
  </diagram>
  <diagram name="12_passFail" id="vD1aTRgfoK_SNaeAMPtr">
    <mxGraphModel dx="1389" dy="716" grid="1" gridSize="10" guides="1" tooltips="1" connect="1" arrows="1" fold="1" page="1" pageScale="1" pageWidth="1169" pageHeight="827" math="0" shadow="0">
      <root>
        <mxCell id="nHQiRf9aNQH0XOt0HSQz-0" />
        <mxCell id="nHQiRf9aNQH0XOt0HSQz-1" parent="nHQiRf9aNQH0XOt0HSQz-0" />
        <mxCell id="nHQiRf9aNQH0XOt0HSQz-2" value="" style="edgeStyle=orthogonalEdgeStyle;rounded=0;orthogonalLoop=1;jettySize=auto;html=1;" edge="1" parent="nHQiRf9aNQH0XOt0HSQz-1" source="nHQiRf9aNQH0XOt0HSQz-3" target="nHQiRf9aNQH0XOt0HSQz-26">
          <mxGeometry relative="1" as="geometry" />
        </mxCell>
        <mxCell id="nHQiRf9aNQH0XOt0HSQz-3" value="開始" style="strokeWidth=2;html=1;shape=mxgraph.flowchart.terminator;whiteSpace=wrap;" vertex="1" parent="nHQiRf9aNQH0XOt0HSQz-1">
          <mxGeometry x="110" y="80" width="100" height="40" as="geometry" />
        </mxCell>
        <mxCell id="nHQiRf9aNQH0XOt0HSQz-4" value="終了" style="strokeWidth=2;html=1;shape=mxgraph.flowchart.terminator;whiteSpace=wrap;" vertex="1" parent="nHQiRf9aNQH0XOt0HSQz-1">
          <mxGeometry x="110" y="480" width="100" height="40" as="geometry" />
        </mxCell>
        <mxCell id="nHQiRf9aNQH0XOt0HSQz-5" value="" style="edgeStyle=orthogonalEdgeStyle;rounded=0;orthogonalLoop=1;jettySize=auto;html=1;" edge="1" parent="nHQiRf9aNQH0XOt0HSQz-1" source="nHQiRf9aNQH0XOt0HSQz-6" target="nHQiRf9aNQH0XOt0HSQz-8">
          <mxGeometry relative="1" as="geometry" />
        </mxCell>
        <mxCell id="nHQiRf9aNQH0XOt0HSQz-6" value="入力処理" style="verticalLabelPosition=bottom;verticalAlign=top;html=1;shape=process;whiteSpace=wrap;rounded=1;size=0.14;arcSize=6;spacingTop=-32;strokeWidth=2;" vertex="1" parent="nHQiRf9aNQH0XOt0HSQz-1">
          <mxGeometry x="90" y="240" width="140" height="40" as="geometry" />
        </mxCell>
        <mxCell id="nHQiRf9aNQH0XOt0HSQz-7" value="" style="edgeStyle=orthogonalEdgeStyle;rounded=0;orthogonalLoop=1;jettySize=auto;html=1;" edge="1" parent="nHQiRf9aNQH0XOt0HSQz-1" source="nHQiRf9aNQH0XOt0HSQz-8">
          <mxGeometry relative="1" as="geometry">
            <mxPoint x="160" y="400" as="targetPoint" />
          </mxGeometry>
        </mxCell>
        <mxCell id="nHQiRf9aNQH0XOt0HSQz-8" value="合格判定処理" style="verticalLabelPosition=bottom;verticalAlign=top;html=1;shape=process;whiteSpace=wrap;rounded=1;size=0.14;arcSize=6;spacingTop=-32;strokeWidth=2;" vertex="1" parent="nHQiRf9aNQH0XOt0HSQz-1">
          <mxGeometry x="90" y="320" width="140" height="40" as="geometry" />
        </mxCell>
        <mxCell id="nHQiRf9aNQH0XOt0HSQz-9" value="" style="edgeStyle=orthogonalEdgeStyle;rounded=0;orthogonalLoop=1;jettySize=auto;html=1;" edge="1" parent="nHQiRf9aNQH0XOt0HSQz-1" source="nHQiRf9aNQH0XOt0HSQz-10" target="nHQiRf9aNQH0XOt0HSQz-12">
          <mxGeometry relative="1" as="geometry" />
        </mxCell>
        <mxCell id="nHQiRf9aNQH0XOt0HSQz-10" value="入力処理" style="strokeWidth=2;html=1;shape=mxgraph.flowchart.terminator;whiteSpace=wrap;" vertex="1" parent="nHQiRf9aNQH0XOt0HSQz-1">
          <mxGeometry x="310" y="80" width="100" height="40" as="geometry" />
        </mxCell>
        <mxCell id="nHQiRf9aNQH0XOt0HSQz-11" value="" style="edgeStyle=orthogonalEdgeStyle;rounded=0;orthogonalLoop=1;jettySize=auto;html=1;" edge="1" parent="nHQiRf9aNQH0XOt0HSQz-1" source="nHQiRf9aNQH0XOt0HSQz-12" target="nHQiRf9aNQH0XOt0HSQz-14">
          <mxGeometry relative="1" as="geometry" />
        </mxCell>
        <mxCell id="nHQiRf9aNQH0XOt0HSQz-12" value="点数：" style="strokeWidth=2;html=1;shape=mxgraph.flowchart.display;whiteSpace=wrap;" vertex="1" parent="nHQiRf9aNQH0XOt0HSQz-1">
          <mxGeometry x="310" y="160" width="100" height="40" as="geometry" />
        </mxCell>
        <mxCell id="8y09WDzT5w4gtGHiNDCS-12" value="" style="edgeStyle=orthogonalEdgeStyle;rounded=0;orthogonalLoop=1;jettySize=auto;html=1;" edge="1" parent="nHQiRf9aNQH0XOt0HSQz-1" source="nHQiRf9aNQH0XOt0HSQz-14" target="nHQiRf9aNQH0XOt0HSQz-19">
          <mxGeometry relative="1" as="geometry" />
        </mxCell>
        <mxCell id="nHQiRf9aNQH0XOt0HSQz-14" value="点数" style="html=1;strokeWidth=2;shape=manualInput;whiteSpace=wrap;rounded=1;size=13;arcSize=0;spacingTop=6;" vertex="1" parent="nHQiRf9aNQH0XOt0HSQz-1">
          <mxGeometry x="310" y="240" width="100" height="40" as="geometry" />
        </mxCell>
        <mxCell id="nHQiRf9aNQH0XOt0HSQz-19" value="戻る" style="strokeWidth=2;html=1;shape=mxgraph.flowchart.terminator;whiteSpace=wrap;" vertex="1" parent="nHQiRf9aNQH0XOt0HSQz-1">
          <mxGeometry x="310" y="320" width="100" height="40" as="geometry" />
        </mxCell>
        <mxCell id="8y09WDzT5w4gtGHiNDCS-14" value="" style="edgeStyle=orthogonalEdgeStyle;rounded=0;orthogonalLoop=1;jettySize=auto;html=1;" edge="1" parent="nHQiRf9aNQH0XOt0HSQz-1" source="nHQiRf9aNQH0XOt0HSQz-21" target="8y09WDzT5w4gtGHiNDCS-13">
          <mxGeometry relative="1" as="geometry" />
        </mxCell>
        <mxCell id="nHQiRf9aNQH0XOt0HSQz-21" value="合格判定処理" style="strokeWidth=2;html=1;shape=mxgraph.flowchart.terminator;whiteSpace=wrap;" vertex="1" parent="nHQiRf9aNQH0XOt0HSQz-1">
          <mxGeometry x="510" y="80" width="100" height="40" as="geometry" />
        </mxCell>
        <mxCell id="nHQiRf9aNQH0XOt0HSQz-24" value="戻る" style="strokeWidth=2;html=1;shape=mxgraph.flowchart.terminator;whiteSpace=wrap;" vertex="1" parent="nHQiRf9aNQH0XOt0HSQz-1">
          <mxGeometry x="510" y="440" width="100" height="40" as="geometry" />
        </mxCell>
        <mxCell id="nHQiRf9aNQH0XOt0HSQz-25" value="" style="edgeStyle=orthogonalEdgeStyle;rounded=0;orthogonalLoop=1;jettySize=auto;html=1;" edge="1" parent="nHQiRf9aNQH0XOt0HSQz-1" source="nHQiRf9aNQH0XOt0HSQz-26" target="nHQiRf9aNQH0XOt0HSQz-6">
          <mxGeometry relative="1" as="geometry" />
        </mxCell>
        <mxCell id="nHQiRf9aNQH0XOt0HSQz-26" value="点数, 合格点, 結果" style="verticalLabelPosition=bottom;verticalAlign=top;html=1;shape=hexagon;perimeter=hexagonPerimeter2;arcSize=6;size=0.12500000000000142;spacingTop=-32;strokeWidth=2;" vertex="1" parent="nHQiRf9aNQH0XOt0HSQz-1">
          <mxGeometry x="90" y="160" width="140" height="40" as="geometry" />
        </mxCell>
        <mxCell id="nHQiRf9aNQH0XOt0HSQz-27" value="" style="edgeStyle=orthogonalEdgeStyle;rounded=0;orthogonalLoop=1;jettySize=auto;html=1;" edge="1" parent="nHQiRf9aNQH0XOt0HSQz-1" source="nHQiRf9aNQH0XOt0HSQz-28" target="nHQiRf9aNQH0XOt0HSQz-4">
          <mxGeometry relative="1" as="geometry" />
        </mxCell>
        <mxCell id="nHQiRf9aNQH0XOt0HSQz-28" value="結果" style="html=1;strokeWidth=2;shape=manualInput;whiteSpace=wrap;rounded=1;size=13;arcSize=0;spacingTop=6;" vertex="1" parent="nHQiRf9aNQH0XOt0HSQz-1">
          <mxGeometry x="110" y="400" width="100" height="40" as="geometry" />
        </mxCell>
        <mxCell id="8y09WDzT5w4gtGHiNDCS-5" value="" style="edgeStyle=orthogonalEdgeStyle;rounded=0;orthogonalLoop=1;jettySize=auto;html=1;" edge="1" parent="nHQiRf9aNQH0XOt0HSQz-1" source="8y09WDzT5w4gtGHiNDCS-1" target="8y09WDzT5w4gtGHiNDCS-3">
          <mxGeometry relative="1" as="geometry" />
        </mxCell>
        <mxCell id="8y09WDzT5w4gtGHiNDCS-7" style="edgeStyle=orthogonalEdgeStyle;rounded=0;orthogonalLoop=1;jettySize=auto;html=1;entryX=0.5;entryY=0;entryDx=0;entryDy=0;" edge="1" parent="nHQiRf9aNQH0XOt0HSQz-1" source="8y09WDzT5w4gtGHiNDCS-1" target="8y09WDzT5w4gtGHiNDCS-6">
          <mxGeometry relative="1" as="geometry" />
        </mxCell>
        <mxCell id="8y09WDzT5w4gtGHiNDCS-1" value="点数 ＞＝ 合格点" style="strokeWidth=2;html=1;shape=mxgraph.flowchart.decision;whiteSpace=wrap;" vertex="1" parent="nHQiRf9aNQH0XOt0HSQz-1">
          <mxGeometry x="500" y="230" width="120" height="60" as="geometry" />
        </mxCell>
        <mxCell id="8y09WDzT5w4gtGHiNDCS-8" value="" style="edgeStyle=orthogonalEdgeStyle;rounded=0;orthogonalLoop=1;jettySize=auto;html=1;" edge="1" parent="nHQiRf9aNQH0XOt0HSQz-1" source="8y09WDzT5w4gtGHiNDCS-3" target="nHQiRf9aNQH0XOt0HSQz-24">
          <mxGeometry relative="1" as="geometry" />
        </mxCell>
        <mxCell id="8y09WDzT5w4gtGHiNDCS-3" value="結果 ＝ &quot;【合格】&quot;" style="rounded=1;whiteSpace=wrap;html=1;absoluteArcSize=1;arcSize=14;strokeWidth=2;" vertex="1" parent="nHQiRf9aNQH0XOt0HSQz-1">
          <mxGeometry x="500" y="320" width="120" height="40" as="geometry" />
        </mxCell>
        <mxCell id="8y09WDzT5w4gtGHiNDCS-9" style="edgeStyle=orthogonalEdgeStyle;rounded=0;orthogonalLoop=1;jettySize=auto;html=1;exitX=0.5;exitY=1;exitDx=0;exitDy=0;" edge="1" parent="nHQiRf9aNQH0XOt0HSQz-1" source="8y09WDzT5w4gtGHiNDCS-6">
          <mxGeometry relative="1" as="geometry">
            <mxPoint x="560" y="400" as="targetPoint" />
            <Array as="points">
              <mxPoint x="720" y="400" />
            </Array>
          </mxGeometry>
        </mxCell>
        <mxCell id="8y09WDzT5w4gtGHiNDCS-6" value="結果 ＝ &quot;【不合格】&quot;" style="rounded=1;whiteSpace=wrap;html=1;absoluteArcSize=1;arcSize=14;strokeWidth=2;" vertex="1" parent="nHQiRf9aNQH0XOt0HSQz-1">
          <mxGeometry x="660" y="320" width="120" height="40" as="geometry" />
        </mxCell>
        <mxCell id="8y09WDzT5w4gtGHiNDCS-10" value="false" style="text;html=1;align=center;verticalAlign=middle;resizable=0;points=[];autosize=1;strokeColor=none;fillColor=none;" vertex="1" parent="nHQiRf9aNQH0XOt0HSQz-1">
          <mxGeometry x="585" y="228" width="50" height="30" as="geometry" />
        </mxCell>
        <mxCell id="8y09WDzT5w4gtGHiNDCS-11" value="true" style="text;html=1;align=center;verticalAlign=middle;resizable=0;points=[];autosize=1;strokeColor=none;fillColor=none;" vertex="1" parent="nHQiRf9aNQH0XOt0HSQz-1">
          <mxGeometry x="560" y="278" width="40" height="30" as="geometry" />
        </mxCell>
        <mxCell id="8y09WDzT5w4gtGHiNDCS-13" value="合格点 ＝ 70" style="rounded=1;whiteSpace=wrap;html=1;absoluteArcSize=1;arcSize=14;strokeWidth=2;" vertex="1" parent="nHQiRf9aNQH0XOt0HSQz-1">
          <mxGeometry x="500" y="160" width="120" height="40" as="geometry" />
        </mxCell>
        <mxCell id="8y09WDzT5w4gtGHiNDCS-16" style="edgeStyle=orthogonalEdgeStyle;rounded=0;orthogonalLoop=1;jettySize=auto;html=1;entryX=0.5;entryY=0;entryDx=0;entryDy=0;entryPerimeter=0;" edge="1" parent="nHQiRf9aNQH0XOt0HSQz-1" source="8y09WDzT5w4gtGHiNDCS-13" target="8y09WDzT5w4gtGHiNDCS-1">
          <mxGeometry relative="1" as="geometry" />
        </mxCell>
      </root>
    </mxGraphModel>
  </diagram>
  <diagram name="13_countsPoint" id="Gbmg9Yk_qp5LXMgEdLaK">
    <mxGraphModel dx="1634" dy="842" grid="1" gridSize="10" guides="1" tooltips="1" connect="1" arrows="1" fold="1" page="1" pageScale="1" pageWidth="1169" pageHeight="827" math="0" shadow="0">
      <root>
        <mxCell id="aZdB4IPbFA3xgnilCvWI-0" />
        <mxCell id="aZdB4IPbFA3xgnilCvWI-1" parent="aZdB4IPbFA3xgnilCvWI-0" />
        <mxCell id="aZdB4IPbFA3xgnilCvWI-2" value="" style="edgeStyle=orthogonalEdgeStyle;rounded=0;orthogonalLoop=1;jettySize=auto;html=1;" edge="1" parent="aZdB4IPbFA3xgnilCvWI-1" source="aZdB4IPbFA3xgnilCvWI-3" target="aZdB4IPbFA3xgnilCvWI-20">
          <mxGeometry relative="1" as="geometry" />
        </mxCell>
        <mxCell id="aZdB4IPbFA3xgnilCvWI-3" value="開始" style="strokeWidth=2;html=1;shape=mxgraph.flowchart.terminator;whiteSpace=wrap;" vertex="1" parent="aZdB4IPbFA3xgnilCvWI-1">
          <mxGeometry x="110" y="40" width="100" height="40" as="geometry" />
        </mxCell>
        <mxCell id="aZdB4IPbFA3xgnilCvWI-4" value="終了" style="strokeWidth=2;html=1;shape=mxgraph.flowchart.terminator;whiteSpace=wrap;" vertex="1" parent="aZdB4IPbFA3xgnilCvWI-1">
          <mxGeometry x="110" y="523" width="100" height="40" as="geometry" />
        </mxCell>
        <mxCell id="YaI-RqHF9K6HXjOj0zNu-22" value="" style="edgeStyle=orthogonalEdgeStyle;rounded=0;orthogonalLoop=1;jettySize=auto;html=1;" edge="1" parent="aZdB4IPbFA3xgnilCvWI-1" source="aZdB4IPbFA3xgnilCvWI-6" target="YaI-RqHF9K6HXjOj0zNu-21">
          <mxGeometry relative="1" as="geometry" />
        </mxCell>
        <mxCell id="aZdB4IPbFA3xgnilCvWI-6" value="入力処理" style="verticalLabelPosition=bottom;verticalAlign=top;html=1;shape=process;whiteSpace=wrap;rounded=1;size=0.14;arcSize=6;spacingTop=-32;strokeWidth=2;" vertex="1" parent="aZdB4IPbFA3xgnilCvWI-1">
          <mxGeometry x="90" y="280" width="140" height="40" as="geometry" />
        </mxCell>
        <mxCell id="YaI-RqHF9K6HXjOj0zNu-3" value="" style="edgeStyle=orthogonalEdgeStyle;rounded=0;orthogonalLoop=1;jettySize=auto;html=1;" edge="1" parent="aZdB4IPbFA3xgnilCvWI-1" source="aZdB4IPbFA3xgnilCvWI-10" target="YaI-RqHF9K6HXjOj0zNu-2">
          <mxGeometry relative="1" as="geometry" />
        </mxCell>
        <mxCell id="aZdB4IPbFA3xgnilCvWI-10" value="入力処理" style="strokeWidth=2;html=1;shape=mxgraph.flowchart.terminator;whiteSpace=wrap;" vertex="1" parent="aZdB4IPbFA3xgnilCvWI-1">
          <mxGeometry x="310" y="40" width="100" height="40" as="geometry" />
        </mxCell>
        <mxCell id="aZdB4IPbFA3xgnilCvWI-15" value="戻る" style="strokeWidth=2;html=1;shape=mxgraph.flowchart.terminator;whiteSpace=wrap;" vertex="1" parent="aZdB4IPbFA3xgnilCvWI-1">
          <mxGeometry x="310" y="840" width="100" height="40" as="geometry" />
        </mxCell>
        <mxCell id="YaI-RqHF9K6HXjOj0zNu-27" value="" style="edgeStyle=orthogonalEdgeStyle;rounded=0;orthogonalLoop=1;jettySize=auto;html=1;" edge="1" parent="aZdB4IPbFA3xgnilCvWI-1" source="aZdB4IPbFA3xgnilCvWI-20" target="YaI-RqHF9K6HXjOj0zNu-26">
          <mxGeometry relative="1" as="geometry" />
        </mxCell>
        <mxCell id="aZdB4IPbFA3xgnilCvWI-20" value="点数[10], &lt;font face=&quot;Lucida Console&quot;&gt;i, j&lt;/font&gt;, 人数,&amp;nbsp;&lt;div&gt;得点, 合計点, 平均点,&lt;/div&gt;" style="verticalLabelPosition=bottom;verticalAlign=top;html=1;shape=hexagon;perimeter=hexagonPerimeter2;arcSize=6;size=0.12500000000000142;spacingTop=-40;strokeWidth=2;" vertex="1" parent="aZdB4IPbFA3xgnilCvWI-1">
          <mxGeometry x="90" y="120" width="140" height="40" as="geometry" />
        </mxCell>
        <mxCell id="UM4c-kGeeH5yB_Bb9sRn-2" value="" style="edgeStyle=orthogonalEdgeStyle;rounded=0;orthogonalLoop=1;jettySize=auto;html=1;" edge="1" parent="aZdB4IPbFA3xgnilCvWI-1" source="UM4c-kGeeH5yB_Bb9sRn-0" target="aZdB4IPbFA3xgnilCvWI-4">
          <mxGeometry relative="1" as="geometry" />
        </mxCell>
        <mxCell id="UM4c-kGeeH5yB_Bb9sRn-0" value="結果表示" style="verticalLabelPosition=bottom;verticalAlign=top;html=1;shape=process;whiteSpace=wrap;rounded=1;size=0.14;arcSize=6;spacingTop=-32;strokeWidth=2;" vertex="1" parent="aZdB4IPbFA3xgnilCvWI-1">
          <mxGeometry x="90" y="443" width="140" height="40" as="geometry" />
        </mxCell>
        <mxCell id="YaI-RqHF9K6HXjOj0zNu-6" value="" style="edgeStyle=orthogonalEdgeStyle;rounded=0;orthogonalLoop=1;jettySize=auto;html=1;" edge="1" parent="aZdB4IPbFA3xgnilCvWI-1" source="UM4c-kGeeH5yB_Bb9sRn-4" target="YaI-RqHF9K6HXjOj0zNu-0">
          <mxGeometry relative="1" as="geometry" />
        </mxCell>
        <mxCell id="UM4c-kGeeH5yB_Bb9sRn-4" value="入力ループ&lt;div&gt;&lt;font face=&quot;Lucida Console&quot;&gt;i ＜ 10&lt;/font&gt;&lt;/div&gt;" style="strokeWidth=2;html=1;shape=mxgraph.flowchart.loop_limit;whiteSpace=wrap;" vertex="1" parent="aZdB4IPbFA3xgnilCvWI-1">
          <mxGeometry x="310" y="200" width="100" height="40" as="geometry" />
        </mxCell>
        <mxCell id="YaI-RqHF9K6HXjOj0zNu-16" value="" style="edgeStyle=orthogonalEdgeStyle;rounded=0;orthogonalLoop=1;jettySize=auto;html=1;" edge="1" parent="aZdB4IPbFA3xgnilCvWI-1" source="UM4c-kGeeH5yB_Bb9sRn-5" target="aZdB4IPbFA3xgnilCvWI-15">
          <mxGeometry relative="1" as="geometry" />
        </mxCell>
        <mxCell id="UM4c-kGeeH5yB_Bb9sRn-5" value="入力ループ" style="strokeWidth=2;html=1;shape=mxgraph.flowchart.loop_limit;whiteSpace=wrap;flipV=1;" vertex="1" parent="aZdB4IPbFA3xgnilCvWI-1">
          <mxGeometry x="310" y="740" width="100" height="40" as="geometry" />
        </mxCell>
        <mxCell id="YaI-RqHF9K6HXjOj0zNu-7" value="" style="edgeStyle=orthogonalEdgeStyle;rounded=0;orthogonalLoop=1;jettySize=auto;html=1;" edge="1" parent="aZdB4IPbFA3xgnilCvWI-1" source="YaI-RqHF9K6HXjOj0zNu-0" target="YaI-RqHF9K6HXjOj0zNu-1">
          <mxGeometry relative="1" as="geometry" />
        </mxCell>
        <mxCell id="YaI-RqHF9K6HXjOj0zNu-0" value="得点：" style="strokeWidth=2;html=1;shape=mxgraph.flowchart.display;whiteSpace=wrap;" vertex="1" parent="aZdB4IPbFA3xgnilCvWI-1">
          <mxGeometry x="310" y="280" width="100" height="40" as="geometry" />
        </mxCell>
        <mxCell id="YaI-RqHF9K6HXjOj0zNu-13" style="edgeStyle=orthogonalEdgeStyle;rounded=0;orthogonalLoop=1;jettySize=auto;html=1;" edge="1" parent="aZdB4IPbFA3xgnilCvWI-1" source="YaI-RqHF9K6HXjOj0zNu-1" target="YaI-RqHF9K6HXjOj0zNu-8">
          <mxGeometry relative="1" as="geometry" />
        </mxCell>
        <mxCell id="YaI-RqHF9K6HXjOj0zNu-1" value="得点" style="html=1;strokeWidth=2;shape=manualInput;whiteSpace=wrap;rounded=1;size=13;arcSize=0;spacingTop=6;" vertex="1" parent="aZdB4IPbFA3xgnilCvWI-1">
          <mxGeometry x="310" y="360" width="100" height="40" as="geometry" />
        </mxCell>
        <mxCell id="YaI-RqHF9K6HXjOj0zNu-4" value="" style="edgeStyle=orthogonalEdgeStyle;rounded=0;orthogonalLoop=1;jettySize=auto;html=1;" edge="1" parent="aZdB4IPbFA3xgnilCvWI-1" source="YaI-RqHF9K6HXjOj0zNu-2" target="UM4c-kGeeH5yB_Bb9sRn-4">
          <mxGeometry relative="1" as="geometry" />
        </mxCell>
        <mxCell id="YaI-RqHF9K6HXjOj0zNu-2" value="&lt;font face=&quot;Lucida Console&quot;&gt;i ＝ 0&lt;/font&gt;" style="rounded=1;whiteSpace=wrap;html=1;absoluteArcSize=1;arcSize=14;strokeWidth=2;" vertex="1" parent="aZdB4IPbFA3xgnilCvWI-1">
          <mxGeometry x="310" y="120" width="100" height="40" as="geometry" />
        </mxCell>
        <mxCell id="YaI-RqHF9K6HXjOj0zNu-14" value="" style="edgeStyle=orthogonalEdgeStyle;rounded=0;orthogonalLoop=1;jettySize=auto;html=1;" edge="1" parent="aZdB4IPbFA3xgnilCvWI-1" source="YaI-RqHF9K6HXjOj0zNu-8" target="YaI-RqHF9K6HXjOj0zNu-12">
          <mxGeometry relative="1" as="geometry" />
        </mxCell>
        <mxCell id="YaI-RqHF9K6HXjOj0zNu-17" style="edgeStyle=orthogonalEdgeStyle;rounded=0;orthogonalLoop=1;jettySize=auto;html=1;exitX=1;exitY=0.5;exitDx=0;exitDy=0;exitPerimeter=0;" edge="1" parent="aZdB4IPbFA3xgnilCvWI-1" source="YaI-RqHF9K6HXjOj0zNu-8">
          <mxGeometry relative="1" as="geometry">
            <mxPoint x="360" y="810" as="targetPoint" />
            <Array as="points">
              <mxPoint x="480" y="460" />
              <mxPoint x="480" y="810" />
            </Array>
          </mxGeometry>
        </mxCell>
        <mxCell id="YaI-RqHF9K6HXjOj0zNu-8" value="点数 ＞ -1" style="strokeWidth=2;html=1;shape=mxgraph.flowchart.decision;whiteSpace=wrap;" vertex="1" parent="aZdB4IPbFA3xgnilCvWI-1">
          <mxGeometry x="300" y="430" width="120" height="60" as="geometry" />
        </mxCell>
        <mxCell id="YaI-RqHF9K6HXjOj0zNu-10" value="&lt;font face=&quot;Lucida Console&quot;&gt;点数[i] ＝ 得点&lt;/font&gt;" style="rounded=1;whiteSpace=wrap;html=1;absoluteArcSize=1;arcSize=14;strokeWidth=2;" vertex="1" parent="aZdB4IPbFA3xgnilCvWI-1">
          <mxGeometry x="310" y="520" width="100" height="40" as="geometry" />
        </mxCell>
        <mxCell id="YaI-RqHF9K6HXjOj0zNu-33" style="edgeStyle=orthogonalEdgeStyle;rounded=0;orthogonalLoop=1;jettySize=auto;html=1;entryX=0.5;entryY=0;entryDx=0;entryDy=0;" edge="1" parent="aZdB4IPbFA3xgnilCvWI-1" source="YaI-RqHF9K6HXjOj0zNu-12" target="YaI-RqHF9K6HXjOj0zNu-32">
          <mxGeometry relative="1" as="geometry" />
        </mxCell>
        <mxCell id="YaI-RqHF9K6HXjOj0zNu-12" value="&lt;font face=&quot;Lucida Console&quot;&gt;i ＝ i + 1&lt;/font&gt;" style="rounded=1;whiteSpace=wrap;html=1;absoluteArcSize=1;arcSize=14;strokeWidth=2;" vertex="1" parent="aZdB4IPbFA3xgnilCvWI-1">
          <mxGeometry x="310" y="600" width="100" height="40" as="geometry" />
        </mxCell>
        <mxCell id="YaI-RqHF9K6HXjOj0zNu-19" value="true" style="text;html=1;align=center;verticalAlign=middle;resizable=0;points=[];autosize=1;strokeColor=none;fillColor=none;" vertex="1" parent="aZdB4IPbFA3xgnilCvWI-1">
          <mxGeometry x="360" y="488" width="40" height="30" as="geometry" />
        </mxCell>
        <mxCell id="YaI-RqHF9K6HXjOj0zNu-20" value="false" style="text;html=1;align=center;verticalAlign=middle;resizable=0;points=[];autosize=1;strokeColor=none;fillColor=none;" vertex="1" parent="aZdB4IPbFA3xgnilCvWI-1">
          <mxGeometry x="400" y="430" width="50" height="30" as="geometry" />
        </mxCell>
        <mxCell id="YaI-RqHF9K6HXjOj0zNu-51" style="edgeStyle=orthogonalEdgeStyle;rounded=0;orthogonalLoop=1;jettySize=auto;html=1;entryX=0.5;entryY=0;entryDx=0;entryDy=0;" edge="1" parent="aZdB4IPbFA3xgnilCvWI-1" source="YaI-RqHF9K6HXjOj0zNu-21" target="UM4c-kGeeH5yB_Bb9sRn-0">
          <mxGeometry relative="1" as="geometry" />
        </mxCell>
        <mxCell id="YaI-RqHF9K6HXjOj0zNu-21" value="集計処理" style="verticalLabelPosition=bottom;verticalAlign=top;html=1;shape=process;whiteSpace=wrap;rounded=1;size=0.14;arcSize=6;spacingTop=-32;strokeWidth=2;" vertex="1" parent="aZdB4IPbFA3xgnilCvWI-1">
          <mxGeometry x="90" y="360" width="140" height="40" as="geometry" />
        </mxCell>
        <mxCell id="kPDJEy304kPlfB97Wm-x-27" value="" style="edgeStyle=orthogonalEdgeStyle;rounded=0;orthogonalLoop=1;jettySize=auto;html=1;" edge="1" parent="aZdB4IPbFA3xgnilCvWI-1" source="YaI-RqHF9K6HXjOj0zNu-26" target="aZdB4IPbFA3xgnilCvWI-6">
          <mxGeometry relative="1" as="geometry" />
        </mxCell>
        <mxCell id="YaI-RqHF9K6HXjOj0zNu-26" value="&lt;font face=&quot;Lucida Console&quot;&gt;人数 ＝ 0&lt;/font&gt;" style="rounded=1;whiteSpace=wrap;html=1;absoluteArcSize=1;arcSize=14;strokeWidth=2;" vertex="1" parent="aZdB4IPbFA3xgnilCvWI-1">
          <mxGeometry x="110" y="200" width="100" height="40" as="geometry" />
        </mxCell>
        <mxCell id="YaI-RqHF9K6HXjOj0zNu-34" style="edgeStyle=orthogonalEdgeStyle;rounded=0;orthogonalLoop=1;jettySize=auto;html=1;" edge="1" parent="aZdB4IPbFA3xgnilCvWI-1" source="YaI-RqHF9K6HXjOj0zNu-32" target="UM4c-kGeeH5yB_Bb9sRn-5">
          <mxGeometry relative="1" as="geometry" />
        </mxCell>
        <mxCell id="YaI-RqHF9K6HXjOj0zNu-32" value="&lt;font face=&quot;Lucida Console&quot;&gt;人数 ＝ i&lt;/font&gt;" style="rounded=1;whiteSpace=wrap;html=1;absoluteArcSize=1;arcSize=14;strokeWidth=2;" vertex="1" parent="aZdB4IPbFA3xgnilCvWI-1">
          <mxGeometry x="310" y="670" width="100" height="40" as="geometry" />
        </mxCell>
        <mxCell id="kPDJEy304kPlfB97Wm-x-18" value="" style="edgeStyle=orthogonalEdgeStyle;rounded=0;orthogonalLoop=1;jettySize=auto;html=1;" edge="1" parent="aZdB4IPbFA3xgnilCvWI-1" source="YaI-RqHF9K6HXjOj0zNu-35" target="YaI-RqHF9K6HXjOj0zNu-37">
          <mxGeometry relative="1" as="geometry" />
        </mxCell>
        <mxCell id="YaI-RqHF9K6HXjOj0zNu-35" value="集計処理" style="strokeWidth=2;html=1;shape=mxgraph.flowchart.terminator;whiteSpace=wrap;" vertex="1" parent="aZdB4IPbFA3xgnilCvWI-1">
          <mxGeometry x="589" y="40" width="100" height="40" as="geometry" />
        </mxCell>
        <mxCell id="kPDJEy304kPlfB97Wm-x-21" value="" style="edgeStyle=orthogonalEdgeStyle;rounded=0;orthogonalLoop=1;jettySize=auto;html=1;" edge="1" parent="aZdB4IPbFA3xgnilCvWI-1" source="YaI-RqHF9K6HXjOj0zNu-36" target="YaI-RqHF9K6HXjOj0zNu-43">
          <mxGeometry relative="1" as="geometry" />
        </mxCell>
        <mxCell id="YaI-RqHF9K6HXjOj0zNu-36" value="集計ループ&lt;div&gt;&lt;font face=&quot;Lucida Console&quot;&gt;j ＜ 人数&lt;/font&gt;&lt;/div&gt;" style="strokeWidth=2;html=1;shape=mxgraph.flowchart.loop_limit;whiteSpace=wrap;" vertex="1" parent="aZdB4IPbFA3xgnilCvWI-1">
          <mxGeometry x="589" y="280" width="100" height="40" as="geometry" />
        </mxCell>
        <mxCell id="kPDJEy304kPlfB97Wm-x-19" value="" style="edgeStyle=orthogonalEdgeStyle;rounded=0;orthogonalLoop=1;jettySize=auto;html=1;" edge="1" parent="aZdB4IPbFA3xgnilCvWI-1" source="YaI-RqHF9K6HXjOj0zNu-37" target="YaI-RqHF9K6HXjOj0zNu-39">
          <mxGeometry relative="1" as="geometry" />
        </mxCell>
        <mxCell id="YaI-RqHF9K6HXjOj0zNu-37" value="&lt;font face=&quot;Lucida Console&quot;&gt;j ＝ 0&lt;/font&gt;" style="rounded=1;whiteSpace=wrap;html=1;absoluteArcSize=1;arcSize=14;strokeWidth=2;" vertex="1" parent="aZdB4IPbFA3xgnilCvWI-1">
          <mxGeometry x="589" y="120" width="100" height="40" as="geometry" />
        </mxCell>
        <mxCell id="kPDJEy304kPlfB97Wm-x-24" value="" style="edgeStyle=orthogonalEdgeStyle;rounded=0;orthogonalLoop=1;jettySize=auto;html=1;" edge="1" parent="aZdB4IPbFA3xgnilCvWI-1" source="YaI-RqHF9K6HXjOj0zNu-38" target="YaI-RqHF9K6HXjOj0zNu-52">
          <mxGeometry relative="1" as="geometry" />
        </mxCell>
        <mxCell id="YaI-RqHF9K6HXjOj0zNu-38" value="集計ループ" style="strokeWidth=2;html=1;shape=mxgraph.flowchart.loop_limit;whiteSpace=wrap;flipV=1;" vertex="1" parent="aZdB4IPbFA3xgnilCvWI-1">
          <mxGeometry x="589" y="440" width="100" height="40" as="geometry" />
        </mxCell>
        <mxCell id="kPDJEy304kPlfB97Wm-x-20" value="" style="edgeStyle=orthogonalEdgeStyle;rounded=0;orthogonalLoop=1;jettySize=auto;html=1;" edge="1" parent="aZdB4IPbFA3xgnilCvWI-1" source="YaI-RqHF9K6HXjOj0zNu-39" target="YaI-RqHF9K6HXjOj0zNu-36">
          <mxGeometry relative="1" as="geometry" />
        </mxCell>
        <mxCell id="YaI-RqHF9K6HXjOj0zNu-39" value="&lt;font face=&quot;Lucida Console&quot;&gt;合計点 ＝ 0&lt;/font&gt;" style="rounded=1;whiteSpace=wrap;html=1;absoluteArcSize=1;arcSize=14;strokeWidth=2;" vertex="1" parent="aZdB4IPbFA3xgnilCvWI-1">
          <mxGeometry x="589" y="200" width="100" height="40" as="geometry" />
        </mxCell>
        <mxCell id="YaI-RqHF9K6HXjOj0zNu-43" value="&lt;font face=&quot;Lucida Console&quot;&gt;合計点 ＝ 合計点 ＋ 点数[j]&lt;/font&gt;" style="rounded=1;whiteSpace=wrap;html=1;absoluteArcSize=1;arcSize=14;strokeWidth=2;" vertex="1" parent="aZdB4IPbFA3xgnilCvWI-1">
          <mxGeometry x="549" y="360" width="180" height="40" as="geometry" />
        </mxCell>
        <mxCell id="kPDJEy304kPlfB97Wm-x-26" value="" style="edgeStyle=orthogonalEdgeStyle;rounded=0;orthogonalLoop=1;jettySize=auto;html=1;" edge="1" parent="aZdB4IPbFA3xgnilCvWI-1" source="YaI-RqHF9K6HXjOj0zNu-52" target="YaI-RqHF9K6HXjOj0zNu-53">
          <mxGeometry relative="1" as="geometry" />
        </mxCell>
        <mxCell id="YaI-RqHF9K6HXjOj0zNu-52" value="&lt;font face=&quot;Lucida Console&quot;&gt;平均点 ＝ 合計点 / 人数&lt;/font&gt;" style="rounded=1;whiteSpace=wrap;html=1;absoluteArcSize=1;arcSize=14;strokeWidth=2;" vertex="1" parent="aZdB4IPbFA3xgnilCvWI-1">
          <mxGeometry x="549" y="518" width="180" height="40" as="geometry" />
        </mxCell>
        <mxCell id="YaI-RqHF9K6HXjOj0zNu-53" value="戻る" style="strokeWidth=2;html=1;shape=mxgraph.flowchart.terminator;whiteSpace=wrap;" vertex="1" parent="aZdB4IPbFA3xgnilCvWI-1">
          <mxGeometry x="589" y="600" width="100" height="40" as="geometry" />
        </mxCell>
        <mxCell id="kPDJEy304kPlfB97Wm-x-9" value="" style="edgeStyle=orthogonalEdgeStyle;rounded=0;orthogonalLoop=1;jettySize=auto;html=1;" edge="1" parent="aZdB4IPbFA3xgnilCvWI-1" source="YaI-RqHF9K6HXjOj0zNu-55" target="kPDJEy304kPlfB97Wm-x-2">
          <mxGeometry relative="1" as="geometry" />
        </mxCell>
        <mxCell id="YaI-RqHF9K6HXjOj0zNu-55" value="結果表示" style="strokeWidth=2;html=1;shape=mxgraph.flowchart.terminator;whiteSpace=wrap;" vertex="1" parent="aZdB4IPbFA3xgnilCvWI-1">
          <mxGeometry x="830" y="40" width="100" height="40" as="geometry" />
        </mxCell>
        <mxCell id="kPDJEy304kPlfB97Wm-x-10" value="" style="edgeStyle=orthogonalEdgeStyle;rounded=0;orthogonalLoop=1;jettySize=auto;html=1;" edge="1" parent="aZdB4IPbFA3xgnilCvWI-1" source="kPDJEy304kPlfB97Wm-x-2" target="kPDJEy304kPlfB97Wm-x-3">
          <mxGeometry relative="1" as="geometry" />
        </mxCell>
        <mxCell id="kPDJEy304kPlfB97Wm-x-2" value="人数：" style="strokeWidth=2;html=1;shape=mxgraph.flowchart.display;whiteSpace=wrap;" vertex="1" parent="aZdB4IPbFA3xgnilCvWI-1">
          <mxGeometry x="830" y="120" width="100" height="40" as="geometry" />
        </mxCell>
        <mxCell id="kPDJEy304kPlfB97Wm-x-11" value="" style="edgeStyle=orthogonalEdgeStyle;rounded=0;orthogonalLoop=1;jettySize=auto;html=1;" edge="1" parent="aZdB4IPbFA3xgnilCvWI-1" source="kPDJEy304kPlfB97Wm-x-3" target="kPDJEy304kPlfB97Wm-x-4">
          <mxGeometry relative="1" as="geometry" />
        </mxCell>
        <mxCell id="kPDJEy304kPlfB97Wm-x-3" value="人数" style="html=1;strokeWidth=2;shape=manualInput;whiteSpace=wrap;rounded=1;size=13;arcSize=0;spacingTop=6;" vertex="1" parent="aZdB4IPbFA3xgnilCvWI-1">
          <mxGeometry x="830" y="200" width="100" height="40" as="geometry" />
        </mxCell>
        <mxCell id="kPDJEy304kPlfB97Wm-x-12" value="" style="edgeStyle=orthogonalEdgeStyle;rounded=0;orthogonalLoop=1;jettySize=auto;html=1;" edge="1" parent="aZdB4IPbFA3xgnilCvWI-1" source="kPDJEy304kPlfB97Wm-x-4" target="kPDJEy304kPlfB97Wm-x-5">
          <mxGeometry relative="1" as="geometry" />
        </mxCell>
        <mxCell id="kPDJEy304kPlfB97Wm-x-4" value="合計点：" style="strokeWidth=2;html=1;shape=mxgraph.flowchart.display;whiteSpace=wrap;" vertex="1" parent="aZdB4IPbFA3xgnilCvWI-1">
          <mxGeometry x="830" y="280" width="100" height="40" as="geometry" />
        </mxCell>
        <mxCell id="kPDJEy304kPlfB97Wm-x-13" value="" style="edgeStyle=orthogonalEdgeStyle;rounded=0;orthogonalLoop=1;jettySize=auto;html=1;" edge="1" parent="aZdB4IPbFA3xgnilCvWI-1" source="kPDJEy304kPlfB97Wm-x-5" target="kPDJEy304kPlfB97Wm-x-6">
          <mxGeometry relative="1" as="geometry" />
        </mxCell>
        <mxCell id="kPDJEy304kPlfB97Wm-x-5" value="合計点" style="html=1;strokeWidth=2;shape=manualInput;whiteSpace=wrap;rounded=1;size=13;arcSize=0;spacingTop=6;" vertex="1" parent="aZdB4IPbFA3xgnilCvWI-1">
          <mxGeometry x="830" y="360" width="100" height="40" as="geometry" />
        </mxCell>
        <mxCell id="kPDJEy304kPlfB97Wm-x-16" style="edgeStyle=orthogonalEdgeStyle;rounded=0;orthogonalLoop=1;jettySize=auto;html=1;entryX=0.5;entryY=0;entryDx=0;entryDy=0;" edge="1" parent="aZdB4IPbFA3xgnilCvWI-1" source="kPDJEy304kPlfB97Wm-x-6" target="kPDJEy304kPlfB97Wm-x-7">
          <mxGeometry relative="1" as="geometry" />
        </mxCell>
        <mxCell id="kPDJEy304kPlfB97Wm-x-6" value="平均点：" style="strokeWidth=2;html=1;shape=mxgraph.flowchart.display;whiteSpace=wrap;" vertex="1" parent="aZdB4IPbFA3xgnilCvWI-1">
          <mxGeometry x="830" y="443" width="100" height="40" as="geometry" />
        </mxCell>
        <mxCell id="kPDJEy304kPlfB97Wm-x-15" value="" style="edgeStyle=orthogonalEdgeStyle;rounded=0;orthogonalLoop=1;jettySize=auto;html=1;" edge="1" parent="aZdB4IPbFA3xgnilCvWI-1" source="kPDJEy304kPlfB97Wm-x-7" target="kPDJEy304kPlfB97Wm-x-8">
          <mxGeometry relative="1" as="geometry" />
        </mxCell>
        <mxCell id="kPDJEy304kPlfB97Wm-x-7" value="平均点" style="html=1;strokeWidth=2;shape=manualInput;whiteSpace=wrap;rounded=1;size=13;arcSize=0;spacingTop=6;" vertex="1" parent="aZdB4IPbFA3xgnilCvWI-1">
          <mxGeometry x="830" y="523" width="100" height="40" as="geometry" />
        </mxCell>
        <mxCell id="kPDJEy304kPlfB97Wm-x-8" value="戻る" style="strokeWidth=2;html=1;shape=mxgraph.flowchart.terminator;whiteSpace=wrap;" vertex="1" parent="aZdB4IPbFA3xgnilCvWI-1">
          <mxGeometry x="830" y="600" width="100" height="40" as="geometry" />
        </mxCell>
        <mxCell id="kPDJEy304kPlfB97Wm-x-25" style="edgeStyle=orthogonalEdgeStyle;rounded=0;orthogonalLoop=1;jettySize=auto;html=1;entryX=0.5;entryY=1;entryDx=0;entryDy=0;entryPerimeter=0;" edge="1" parent="aZdB4IPbFA3xgnilCvWI-1" source="YaI-RqHF9K6HXjOj0zNu-43" target="YaI-RqHF9K6HXjOj0zNu-38">
          <mxGeometry relative="1" as="geometry" />
        </mxCell>
      </root>
    </mxGraphModel>
  </diagram>
  <diagram name="21_groupTotal" id="HW8-fD4eInMCxMrdk7A4">
    <mxGraphModel dx="1634" dy="842" grid="1" gridSize="10" guides="1" tooltips="1" connect="1" arrows="1" fold="1" page="1" pageScale="1" pageWidth="1169" pageHeight="827" math="0" shadow="0">
      <root>
        <mxCell id="Wbwb5unohPnjsa8_4MkI-0" />
        <mxCell id="Wbwb5unohPnjsa8_4MkI-1" parent="Wbwb5unohPnjsa8_4MkI-0" />
        <mxCell id="jjMblR6Ji7RYlL1l1uxo-1" value="" style="edgeStyle=orthogonalEdgeStyle;rounded=0;orthogonalLoop=1;jettySize=auto;html=1;" edge="1" parent="Wbwb5unohPnjsa8_4MkI-1" source="Wbwb5unohPnjsa8_4MkI-3" target="jjMblR6Ji7RYlL1l1uxo-0">
          <mxGeometry relative="1" as="geometry" />
        </mxCell>
        <mxCell id="Wbwb5unohPnjsa8_4MkI-3" value="開始" style="strokeWidth=2;html=1;shape=mxgraph.flowchart.terminator;whiteSpace=wrap;" vertex="1" parent="Wbwb5unohPnjsa8_4MkI-1">
          <mxGeometry x="110" y="40" width="100" height="40" as="geometry" />
        </mxCell>
        <mxCell id="Wbwb5unohPnjsa8_4MkI-4" value="終了" style="strokeWidth=2;html=1;shape=mxgraph.flowchart.terminator;whiteSpace=wrap;" vertex="1" parent="Wbwb5unohPnjsa8_4MkI-1">
          <mxGeometry x="110" y="443" width="100" height="40" as="geometry" />
        </mxCell>
        <mxCell id="Wbwb5unohPnjsa8_4MkI-5" value="" style="edgeStyle=orthogonalEdgeStyle;rounded=0;orthogonalLoop=1;jettySize=auto;html=1;" edge="1" parent="Wbwb5unohPnjsa8_4MkI-1" source="Wbwb5unohPnjsa8_4MkI-6" target="Wbwb5unohPnjsa8_4MkI-33">
          <mxGeometry relative="1" as="geometry" />
        </mxCell>
        <mxCell id="Wbwb5unohPnjsa8_4MkI-6" value="初期化処理" style="verticalLabelPosition=bottom;verticalAlign=top;html=1;shape=process;whiteSpace=wrap;rounded=1;size=0.14;arcSize=6;spacingTop=-32;strokeWidth=2;" vertex="1" parent="Wbwb5unohPnjsa8_4MkI-1">
          <mxGeometry x="90" y="200" width="140" height="40" as="geometry" />
        </mxCell>
        <mxCell id="Wbwb5unohPnjsa8_4MkI-12" value="" style="edgeStyle=orthogonalEdgeStyle;rounded=0;orthogonalLoop=1;jettySize=auto;html=1;" edge="1" parent="Wbwb5unohPnjsa8_4MkI-1" source="Wbwb5unohPnjsa8_4MkI-13" target="Wbwb5unohPnjsa8_4MkI-4">
          <mxGeometry relative="1" as="geometry" />
        </mxCell>
        <mxCell id="Wbwb5unohPnjsa8_4MkI-13" value="表示処理" style="verticalLabelPosition=bottom;verticalAlign=top;html=1;shape=process;whiteSpace=wrap;rounded=1;size=0.14;arcSize=6;spacingTop=-32;strokeWidth=2;" vertex="1" parent="Wbwb5unohPnjsa8_4MkI-1">
          <mxGeometry x="90" y="363" width="140" height="40" as="geometry" />
        </mxCell>
        <mxCell id="Wbwb5unohPnjsa8_4MkI-32" style="edgeStyle=orthogonalEdgeStyle;rounded=0;orthogonalLoop=1;jettySize=auto;html=1;entryX=0.5;entryY=0;entryDx=0;entryDy=0;" edge="1" parent="Wbwb5unohPnjsa8_4MkI-1" source="Wbwb5unohPnjsa8_4MkI-33" target="Wbwb5unohPnjsa8_4MkI-13">
          <mxGeometry relative="1" as="geometry" />
        </mxCell>
        <mxCell id="Wbwb5unohPnjsa8_4MkI-33" value="集計処理" style="verticalLabelPosition=bottom;verticalAlign=top;html=1;shape=process;whiteSpace=wrap;rounded=1;size=0.14;arcSize=6;spacingTop=-32;strokeWidth=2;" vertex="1" parent="Wbwb5unohPnjsa8_4MkI-1">
          <mxGeometry x="90" y="280" width="140" height="40" as="geometry" />
        </mxCell>
        <mxCell id="jjMblR6Ji7RYlL1l1uxo-2" value="" style="edgeStyle=orthogonalEdgeStyle;rounded=0;orthogonalLoop=1;jettySize=auto;html=1;" edge="1" parent="Wbwb5unohPnjsa8_4MkI-1" source="jjMblR6Ji7RYlL1l1uxo-0" target="Wbwb5unohPnjsa8_4MkI-6">
          <mxGeometry relative="1" as="geometry" />
        </mxCell>
        <mxCell id="jjMblR6Ji7RYlL1l1uxo-0" value="商品別売上合計[6], 売上[20],&amp;nbsp;&lt;div&gt;&lt;font face=&quot;Lucida Console&quot;&gt;売上分類[6]&lt;/font&gt;, &lt;font face=&quot;Lucida Console&quot;&gt;i&lt;/font&gt;, 分類コード,&amp;nbsp; 処理件数, 売上計&lt;/div&gt;" style="verticalLabelPosition=bottom;verticalAlign=top;html=1;shape=hexagon;perimeter=hexagonPerimeter2;arcSize=6;size=0.12500000000000142;spacingTop=-40;strokeWidth=2;" vertex="1" parent="Wbwb5unohPnjsa8_4MkI-1">
          <mxGeometry x="60" y="120" width="200" height="40" as="geometry" />
        </mxCell>
        <mxCell id="wsdWAnBKYm_6Vkn8JKa2-1" value="" style="edgeStyle=orthogonalEdgeStyle;rounded=0;orthogonalLoop=1;jettySize=auto;html=1;" edge="1" parent="Wbwb5unohPnjsa8_4MkI-1" source="jjMblR6Ji7RYlL1l1uxo-4" target="wsdWAnBKYm_6Vkn8JKa2-0">
          <mxGeometry relative="1" as="geometry" />
        </mxCell>
        <mxCell id="jjMblR6Ji7RYlL1l1uxo-4" value="初期化処理" style="strokeWidth=2;html=1;shape=mxgraph.flowchart.terminator;whiteSpace=wrap;" vertex="1" parent="Wbwb5unohPnjsa8_4MkI-1">
          <mxGeometry x="310" y="40" width="100" height="40" as="geometry" />
        </mxCell>
        <mxCell id="q32LoB8GE_cLFo8J0Tgq-5" value="" style="edgeStyle=orthogonalEdgeStyle;rounded=0;orthogonalLoop=1;jettySize=auto;html=1;" edge="1" parent="Wbwb5unohPnjsa8_4MkI-1" source="wsdWAnBKYm_6Vkn8JKa2-0" target="q32LoB8GE_cLFo8J0Tgq-0">
          <mxGeometry relative="1" as="geometry" />
        </mxCell>
        <mxCell id="wsdWAnBKYm_6Vkn8JKa2-0" value="&lt;font face=&quot;Lucida Console&quot;&gt;i ＝ 0&lt;/font&gt;" style="rounded=1;whiteSpace=wrap;html=1;absoluteArcSize=1;arcSize=14;strokeWidth=2;" vertex="1" parent="Wbwb5unohPnjsa8_4MkI-1">
          <mxGeometry x="310" y="120" width="100" height="40" as="geometry" />
        </mxCell>
        <mxCell id="q32LoB8GE_cLFo8J0Tgq-8" style="edgeStyle=orthogonalEdgeStyle;rounded=0;orthogonalLoop=1;jettySize=auto;html=1;entryX=0.5;entryY=0;entryDx=0;entryDy=0;" edge="1" parent="Wbwb5unohPnjsa8_4MkI-1" source="q32LoB8GE_cLFo8J0Tgq-0" target="q32LoB8GE_cLFo8J0Tgq-3">
          <mxGeometry relative="1" as="geometry" />
        </mxCell>
        <mxCell id="q32LoB8GE_cLFo8J0Tgq-0" value="&lt;span style=&quot;background-color: initial;&quot;&gt;商品別売上合計&lt;/span&gt;&lt;div&gt;&lt;span style=&quot;background-color: initial;&quot;&gt;初期化ループ&lt;/span&gt;&lt;div&gt;&lt;div&gt;&lt;font face=&quot;Lucida Console&quot;&gt;i ＜ 6&lt;/font&gt;&lt;/div&gt;&lt;/div&gt;&lt;/div&gt;" style="strokeWidth=2;html=1;shape=mxgraph.flowchart.loop_limit;whiteSpace=wrap;" vertex="1" parent="Wbwb5unohPnjsa8_4MkI-1">
          <mxGeometry x="290" y="195" width="139" height="50" as="geometry" />
        </mxCell>
        <mxCell id="q32LoB8GE_cLFo8J0Tgq-16" value="" style="edgeStyle=orthogonalEdgeStyle;rounded=0;orthogonalLoop=1;jettySize=auto;html=1;" edge="1" parent="Wbwb5unohPnjsa8_4MkI-1" source="q32LoB8GE_cLFo8J0Tgq-2" target="q32LoB8GE_cLFo8J0Tgq-11">
          <mxGeometry relative="1" as="geometry" />
        </mxCell>
        <mxCell id="q32LoB8GE_cLFo8J0Tgq-2" value="&lt;span style=&quot;background-color: initial;&quot;&gt;商品別売上合計&lt;/span&gt;&lt;div&gt;&lt;span style=&quot;background-color: initial;&quot;&gt;初期化ループ&lt;/span&gt;&lt;/div&gt;" style="strokeWidth=2;html=1;shape=mxgraph.flowchart.loop_limit;whiteSpace=wrap;flipV=1;" vertex="1" parent="Wbwb5unohPnjsa8_4MkI-1">
          <mxGeometry x="290.5" y="438" width="139" height="50" as="geometry" />
        </mxCell>
        <mxCell id="q32LoB8GE_cLFo8J0Tgq-9" value="" style="edgeStyle=orthogonalEdgeStyle;rounded=0;orthogonalLoop=1;jettySize=auto;html=1;" edge="1" parent="Wbwb5unohPnjsa8_4MkI-1" source="q32LoB8GE_cLFo8J0Tgq-3" target="q32LoB8GE_cLFo8J0Tgq-4">
          <mxGeometry relative="1" as="geometry" />
        </mxCell>
        <mxCell id="q32LoB8GE_cLFo8J0Tgq-3" value="&lt;font face=&quot;Lucida Console&quot;&gt;商品別売上合計[i] ＝ 0&lt;/font&gt;" style="rounded=1;whiteSpace=wrap;html=1;absoluteArcSize=1;arcSize=14;strokeWidth=2;" vertex="1" parent="Wbwb5unohPnjsa8_4MkI-1">
          <mxGeometry x="279.5" y="280" width="160" height="40" as="geometry" />
        </mxCell>
        <mxCell id="q32LoB8GE_cLFo8J0Tgq-10" value="" style="edgeStyle=orthogonalEdgeStyle;rounded=0;orthogonalLoop=1;jettySize=auto;html=1;" edge="1" parent="Wbwb5unohPnjsa8_4MkI-1" source="q32LoB8GE_cLFo8J0Tgq-4" target="q32LoB8GE_cLFo8J0Tgq-2">
          <mxGeometry relative="1" as="geometry" />
        </mxCell>
        <mxCell id="q32LoB8GE_cLFo8J0Tgq-4" value="&lt;font face=&quot;Lucida Console&quot;&gt;i ＝ i + 1&lt;/font&gt;" style="rounded=1;whiteSpace=wrap;html=1;absoluteArcSize=1;arcSize=14;strokeWidth=2;" vertex="1" parent="Wbwb5unohPnjsa8_4MkI-1">
          <mxGeometry x="309.5" y="363" width="100" height="40" as="geometry" />
        </mxCell>
        <mxCell id="q32LoB8GE_cLFo8J0Tgq-11" value="戻る" style="strokeWidth=2;html=1;shape=mxgraph.flowchart.terminator;whiteSpace=wrap;" vertex="1" parent="Wbwb5unohPnjsa8_4MkI-1">
          <mxGeometry x="309.5" y="520" width="100" height="40" as="geometry" />
        </mxCell>
        <mxCell id="q32LoB8GE_cLFo8J0Tgq-21" style="edgeStyle=orthogonalEdgeStyle;rounded=0;orthogonalLoop=1;jettySize=auto;html=1;entryX=0.5;entryY=0;entryDx=0;entryDy=0;" edge="1" parent="Wbwb5unohPnjsa8_4MkI-1" source="q32LoB8GE_cLFo8J0Tgq-12" target="q32LoB8GE_cLFo8J0Tgq-13">
          <mxGeometry relative="1" as="geometry" />
        </mxCell>
        <mxCell id="q32LoB8GE_cLFo8J0Tgq-12" value="集計処理" style="strokeWidth=2;html=1;shape=mxgraph.flowchart.terminator;whiteSpace=wrap;" vertex="1" parent="Wbwb5unohPnjsa8_4MkI-1">
          <mxGeometry x="550" y="40" width="100" height="40" as="geometry" />
        </mxCell>
        <mxCell id="q32LoB8GE_cLFo8J0Tgq-13" value="&lt;font face=&quot;Lucida Console&quot;&gt;i ＝ 0&lt;/font&gt;" style="rounded=1;whiteSpace=wrap;html=1;absoluteArcSize=1;arcSize=14;strokeWidth=2;" vertex="1" parent="Wbwb5unohPnjsa8_4MkI-1">
          <mxGeometry x="550" y="120" width="100" height="40" as="geometry" />
        </mxCell>
        <mxCell id="q32LoB8GE_cLFo8J0Tgq-24" style="edgeStyle=orthogonalEdgeStyle;rounded=0;orthogonalLoop=1;jettySize=auto;html=1;entryX=0.5;entryY=0;entryDx=0;entryDy=0;" edge="1" parent="Wbwb5unohPnjsa8_4MkI-1" source="q32LoB8GE_cLFo8J0Tgq-14" target="q32LoB8GE_cLFo8J0Tgq-17">
          <mxGeometry relative="1" as="geometry" />
        </mxCell>
        <mxCell id="q32LoB8GE_cLFo8J0Tgq-14" value="&lt;span style=&quot;background-color: initial;&quot;&gt;売上&lt;/span&gt;&lt;span style=&quot;background-color: initial;&quot;&gt;集計ループ&lt;/span&gt;&lt;div&gt;&lt;div&gt;&lt;div&gt;&lt;font face=&quot;Lucida Console&quot;&gt;i ＜ 20&lt;/font&gt;&lt;/div&gt;&lt;/div&gt;&lt;/div&gt;" style="strokeWidth=2;html=1;shape=mxgraph.flowchart.loop_limit;whiteSpace=wrap;" vertex="1" parent="Wbwb5unohPnjsa8_4MkI-1">
          <mxGeometry x="530.5" y="195" width="139" height="50" as="geometry" />
        </mxCell>
        <mxCell id="q32LoB8GE_cLFo8J0Tgq-37" value="" style="edgeStyle=orthogonalEdgeStyle;rounded=0;orthogonalLoop=1;jettySize=auto;html=1;" edge="1" parent="Wbwb5unohPnjsa8_4MkI-1" source="q32LoB8GE_cLFo8J0Tgq-15" target="q32LoB8GE_cLFo8J0Tgq-31">
          <mxGeometry relative="1" as="geometry" />
        </mxCell>
        <mxCell id="q32LoB8GE_cLFo8J0Tgq-15" value="&lt;span style=&quot;background-color: initial;&quot;&gt;売上集計&lt;/span&gt;&lt;span style=&quot;background-color: initial;&quot;&gt;ループ&lt;/span&gt;" style="strokeWidth=2;html=1;shape=mxgraph.flowchart.loop_limit;whiteSpace=wrap;flipV=1;" vertex="1" parent="Wbwb5unohPnjsa8_4MkI-1">
          <mxGeometry x="530.5" y="677" width="139" height="50" as="geometry" />
        </mxCell>
        <mxCell id="q32LoB8GE_cLFo8J0Tgq-25" style="edgeStyle=orthogonalEdgeStyle;rounded=0;orthogonalLoop=1;jettySize=auto;html=1;entryX=0.5;entryY=0;entryDx=0;entryDy=0;" edge="1" parent="Wbwb5unohPnjsa8_4MkI-1" source="q32LoB8GE_cLFo8J0Tgq-17" target="q32LoB8GE_cLFo8J0Tgq-18">
          <mxGeometry relative="1" as="geometry" />
        </mxCell>
        <mxCell id="q32LoB8GE_cLFo8J0Tgq-17" value="&lt;font face=&quot;Lucida Console&quot;&gt;分類コード ＝ 売上分類[i]&lt;/font&gt;" style="rounded=1;whiteSpace=wrap;html=1;absoluteArcSize=1;arcSize=14;strokeWidth=2;" vertex="1" parent="Wbwb5unohPnjsa8_4MkI-1">
          <mxGeometry x="515" y="280" width="170" height="40" as="geometry" />
        </mxCell>
        <mxCell id="q32LoB8GE_cLFo8J0Tgq-47" value="" style="edgeStyle=orthogonalEdgeStyle;rounded=0;orthogonalLoop=1;jettySize=auto;html=1;" edge="1" parent="Wbwb5unohPnjsa8_4MkI-1" source="q32LoB8GE_cLFo8J0Tgq-18" target="q32LoB8GE_cLFo8J0Tgq-46">
          <mxGeometry relative="1" as="geometry" />
        </mxCell>
        <mxCell id="q32LoB8GE_cLFo8J0Tgq-18" value="&lt;font face=&quot;Lucida Console&quot;&gt;分類別売上合計[分類コード] +＝ 売上[i]&amp;nbsp;&lt;/font&gt;" style="rounded=1;whiteSpace=wrap;html=1;absoluteArcSize=1;arcSize=14;strokeWidth=2;" vertex="1" parent="Wbwb5unohPnjsa8_4MkI-1">
          <mxGeometry x="515" y="360" width="170" height="40" as="geometry" />
        </mxCell>
        <mxCell id="q32LoB8GE_cLFo8J0Tgq-22" style="edgeStyle=orthogonalEdgeStyle;rounded=0;orthogonalLoop=1;jettySize=auto;html=1;entryX=0.5;entryY=0;entryDx=0;entryDy=0;entryPerimeter=0;" edge="1" parent="Wbwb5unohPnjsa8_4MkI-1" source="q32LoB8GE_cLFo8J0Tgq-13" target="q32LoB8GE_cLFo8J0Tgq-14">
          <mxGeometry relative="1" as="geometry" />
        </mxCell>
        <mxCell id="q32LoB8GE_cLFo8J0Tgq-35" style="edgeStyle=orthogonalEdgeStyle;rounded=0;orthogonalLoop=1;jettySize=auto;html=1;entryX=0.5;entryY=0;entryDx=0;entryDy=0;" edge="1" parent="Wbwb5unohPnjsa8_4MkI-1" source="q32LoB8GE_cLFo8J0Tgq-30" target="q32LoB8GE_cLFo8J0Tgq-34">
          <mxGeometry relative="1" as="geometry" />
        </mxCell>
        <mxCell id="q32LoB8GE_cLFo8J0Tgq-30" value="&lt;font face=&quot;Lucida Console&quot;&gt;i ＝ i + 1&lt;/font&gt;" style="rounded=1;whiteSpace=wrap;html=1;absoluteArcSize=1;arcSize=14;strokeWidth=2;" vertex="1" parent="Wbwb5unohPnjsa8_4MkI-1">
          <mxGeometry x="550" y="520" width="100" height="40" as="geometry" />
        </mxCell>
        <mxCell id="q32LoB8GE_cLFo8J0Tgq-31" value="戻る" style="strokeWidth=2;html=1;shape=mxgraph.flowchart.terminator;whiteSpace=wrap;" vertex="1" parent="Wbwb5unohPnjsa8_4MkI-1">
          <mxGeometry x="550" y="767" width="100" height="40" as="geometry" />
        </mxCell>
        <mxCell id="q32LoB8GE_cLFo8J0Tgq-36" value="" style="edgeStyle=orthogonalEdgeStyle;rounded=0;orthogonalLoop=1;jettySize=auto;html=1;" edge="1" parent="Wbwb5unohPnjsa8_4MkI-1" source="q32LoB8GE_cLFo8J0Tgq-34" target="q32LoB8GE_cLFo8J0Tgq-15">
          <mxGeometry relative="1" as="geometry" />
        </mxCell>
        <mxCell id="q32LoB8GE_cLFo8J0Tgq-34" value="&lt;font face=&quot;Lucida Console&quot;&gt;処理件数 ＝ i&lt;/font&gt;" style="rounded=1;whiteSpace=wrap;html=1;absoluteArcSize=1;arcSize=14;strokeWidth=2;" vertex="1" parent="Wbwb5unohPnjsa8_4MkI-1">
          <mxGeometry x="550" y="597" width="100" height="40" as="geometry" />
        </mxCell>
        <mxCell id="q32LoB8GE_cLFo8J0Tgq-62" value="" style="edgeStyle=orthogonalEdgeStyle;rounded=0;orthogonalLoop=1;jettySize=auto;html=1;" edge="1" parent="Wbwb5unohPnjsa8_4MkI-1" source="q32LoB8GE_cLFo8J0Tgq-38" target="q32LoB8GE_cLFo8J0Tgq-41">
          <mxGeometry relative="1" as="geometry" />
        </mxCell>
        <mxCell id="q32LoB8GE_cLFo8J0Tgq-38" value="集計処理" style="strokeWidth=2;html=1;shape=mxgraph.flowchart.terminator;whiteSpace=wrap;" vertex="1" parent="Wbwb5unohPnjsa8_4MkI-1">
          <mxGeometry x="790" y="40" width="100" height="40" as="geometry" />
        </mxCell>
        <mxCell id="q32LoB8GE_cLFo8J0Tgq-39" value="&lt;font face=&quot;Lucida Console&quot;&gt;i ＝ 0&lt;/font&gt;" style="rounded=1;whiteSpace=wrap;html=1;absoluteArcSize=1;arcSize=14;strokeWidth=2;" vertex="1" parent="Wbwb5unohPnjsa8_4MkI-1">
          <mxGeometry x="790" y="200" width="100" height="40" as="geometry" />
        </mxCell>
        <mxCell id="q32LoB8GE_cLFo8J0Tgq-40" value="&lt;span style=&quot;background-color: initial;&quot;&gt;商品別売上&lt;/span&gt;&lt;div&gt;&lt;span style=&quot;background-color: initial;&quot;&gt;表示ループ&lt;/span&gt;&lt;div&gt;&lt;div&gt;&lt;div&gt;&lt;font face=&quot;Lucida Console&quot;&gt;i ＜ 6&lt;/font&gt;&lt;/div&gt;&lt;/div&gt;&lt;/div&gt;&lt;/div&gt;" style="strokeWidth=2;html=1;shape=mxgraph.flowchart.loop_limit;whiteSpace=wrap;" vertex="1" parent="Wbwb5unohPnjsa8_4MkI-1">
          <mxGeometry x="770.5" y="275" width="139" height="50" as="geometry" />
        </mxCell>
        <mxCell id="q32LoB8GE_cLFo8J0Tgq-61" style="edgeStyle=orthogonalEdgeStyle;rounded=0;orthogonalLoop=1;jettySize=auto;html=1;entryX=0.5;entryY=0;entryDx=0;entryDy=0;" edge="1" parent="Wbwb5unohPnjsa8_4MkI-1" source="q32LoB8GE_cLFo8J0Tgq-41" target="q32LoB8GE_cLFo8J0Tgq-39">
          <mxGeometry relative="1" as="geometry" />
        </mxCell>
        <mxCell id="q32LoB8GE_cLFo8J0Tgq-41" value="処理件数" style="strokeWidth=2;html=1;shape=mxgraph.flowchart.display;whiteSpace=wrap;" vertex="1" parent="Wbwb5unohPnjsa8_4MkI-1">
          <mxGeometry x="790" y="120" width="100" height="40" as="geometry" />
        </mxCell>
        <mxCell id="q32LoB8GE_cLFo8J0Tgq-57" style="edgeStyle=orthogonalEdgeStyle;rounded=0;orthogonalLoop=1;jettySize=auto;html=1;entryX=0.5;entryY=0;entryDx=0;entryDy=0;" edge="1" parent="Wbwb5unohPnjsa8_4MkI-1" source="q32LoB8GE_cLFo8J0Tgq-42" target="q32LoB8GE_cLFo8J0Tgq-44">
          <mxGeometry relative="1" as="geometry" />
        </mxCell>
        <mxCell id="q32LoB8GE_cLFo8J0Tgq-42" value="分類別売上合計[&lt;font face=&quot;Lucida Console&quot;&gt;i&lt;/font&gt;]" style="strokeWidth=2;html=1;shape=mxgraph.flowchart.display;whiteSpace=wrap;" vertex="1" parent="Wbwb5unohPnjsa8_4MkI-1">
          <mxGeometry x="775" y="360" width="130" height="40" as="geometry" />
        </mxCell>
        <mxCell id="q32LoB8GE_cLFo8J0Tgq-56" style="edgeStyle=orthogonalEdgeStyle;rounded=0;orthogonalLoop=1;jettySize=auto;html=1;" edge="1" parent="Wbwb5unohPnjsa8_4MkI-1" source="q32LoB8GE_cLFo8J0Tgq-44" target="q32LoB8GE_cLFo8J0Tgq-45">
          <mxGeometry relative="1" as="geometry" />
        </mxCell>
        <mxCell id="q32LoB8GE_cLFo8J0Tgq-44" value="&lt;font face=&quot;Lucida Console&quot;&gt;i ＝ i + 1&lt;/font&gt;" style="rounded=1;whiteSpace=wrap;html=1;absoluteArcSize=1;arcSize=14;strokeWidth=2;" vertex="1" parent="Wbwb5unohPnjsa8_4MkI-1">
          <mxGeometry x="790" y="443" width="100" height="40" as="geometry" />
        </mxCell>
        <mxCell id="q32LoB8GE_cLFo8J0Tgq-45" value="&lt;span style=&quot;background-color: initial;&quot;&gt;商品別売上&lt;/span&gt;&lt;div&gt;&lt;span style=&quot;background-color: initial;&quot;&gt;表示ループ&lt;/span&gt;&lt;/div&gt;" style="strokeWidth=2;html=1;shape=mxgraph.flowchart.loop_limit;whiteSpace=wrap;flipV=1;" vertex="1" parent="Wbwb5unohPnjsa8_4MkI-1">
          <mxGeometry x="770.5" y="510" width="139" height="50" as="geometry" />
        </mxCell>
        <mxCell id="q32LoB8GE_cLFo8J0Tgq-49" style="edgeStyle=orthogonalEdgeStyle;rounded=0;orthogonalLoop=1;jettySize=auto;html=1;entryX=0.5;entryY=0;entryDx=0;entryDy=0;" edge="1" parent="Wbwb5unohPnjsa8_4MkI-1" source="q32LoB8GE_cLFo8J0Tgq-46" target="q32LoB8GE_cLFo8J0Tgq-30">
          <mxGeometry relative="1" as="geometry" />
        </mxCell>
        <mxCell id="q32LoB8GE_cLFo8J0Tgq-46" value="&lt;font face=&quot;Lucida Console&quot;&gt;売上計+＝ 売上[i]&amp;nbsp;&lt;/font&gt;" style="rounded=1;whiteSpace=wrap;html=1;absoluteArcSize=1;arcSize=14;strokeWidth=2;" vertex="1" parent="Wbwb5unohPnjsa8_4MkI-1">
          <mxGeometry x="515" y="443" width="170" height="40" as="geometry" />
        </mxCell>
        <mxCell id="q32LoB8GE_cLFo8J0Tgq-52" value="" style="edgeStyle=orthogonalEdgeStyle;rounded=0;orthogonalLoop=1;jettySize=auto;html=1;" edge="1" parent="Wbwb5unohPnjsa8_4MkI-1" source="q32LoB8GE_cLFo8J0Tgq-50" target="q32LoB8GE_cLFo8J0Tgq-51">
          <mxGeometry relative="1" as="geometry" />
        </mxCell>
        <mxCell id="q32LoB8GE_cLFo8J0Tgq-50" value="売上計" style="strokeWidth=2;html=1;shape=mxgraph.flowchart.display;whiteSpace=wrap;" vertex="1" parent="Wbwb5unohPnjsa8_4MkI-1">
          <mxGeometry x="790" y="597" width="100" height="40" as="geometry" />
        </mxCell>
        <mxCell id="q32LoB8GE_cLFo8J0Tgq-51" value="戻る" style="strokeWidth=2;html=1;shape=mxgraph.flowchart.terminator;whiteSpace=wrap;" vertex="1" parent="Wbwb5unohPnjsa8_4MkI-1">
          <mxGeometry x="790" y="677" width="100" height="40" as="geometry" />
        </mxCell>
        <mxCell id="q32LoB8GE_cLFo8J0Tgq-54" style="edgeStyle=orthogonalEdgeStyle;rounded=0;orthogonalLoop=1;jettySize=auto;html=1;entryX=0.5;entryY=0;entryDx=0;entryDy=0;entryPerimeter=0;" edge="1" parent="Wbwb5unohPnjsa8_4MkI-1" source="q32LoB8GE_cLFo8J0Tgq-45" target="q32LoB8GE_cLFo8J0Tgq-50">
          <mxGeometry relative="1" as="geometry" />
        </mxCell>
        <mxCell id="q32LoB8GE_cLFo8J0Tgq-58" style="edgeStyle=orthogonalEdgeStyle;rounded=0;orthogonalLoop=1;jettySize=auto;html=1;entryX=0.5;entryY=0;entryDx=0;entryDy=0;entryPerimeter=0;" edge="1" parent="Wbwb5unohPnjsa8_4MkI-1" source="q32LoB8GE_cLFo8J0Tgq-40" target="q32LoB8GE_cLFo8J0Tgq-42">
          <mxGeometry relative="1" as="geometry" />
        </mxCell>
        <mxCell id="q32LoB8GE_cLFo8J0Tgq-59" style="edgeStyle=orthogonalEdgeStyle;rounded=0;orthogonalLoop=1;jettySize=auto;html=1;entryX=0.5;entryY=0;entryDx=0;entryDy=0;entryPerimeter=0;" edge="1" parent="Wbwb5unohPnjsa8_4MkI-1" source="q32LoB8GE_cLFo8J0Tgq-39" target="q32LoB8GE_cLFo8J0Tgq-40">
          <mxGeometry relative="1" as="geometry" />
        </mxCell>
      </root>
    </mxGraphModel>
  </diagram>
</mxfile>
